# xmcd CD database file
#
# Track frame offsets:
#	150
#	12372
#	23785
#	36499
#	48060
#	62410
#	77944
#	91358
#	106082
#	117075
#
# Disc length: 1727 seconds
#
# Revision: 0
# Processed by: cddbd v1.5.2PL0 Copyright (c) Steve Scherf et al.
# Submitted via: CDex 1.51
#
DISCID=7106bd0a
DTITLE=Tommy Lee Sparta - Uncle Demon EP
DYEAR=2013
DGENRE=Dancehall
TTITLE0=Bun-Nu-Nu
TTITLE1=Psycho
TTITLE2=Di Mechanic
TTITLE3=Uncle Demon
TTITLE4=Tom and Jerry
TTITLE5=Some Bwoy
TTITLE6=Dem No Bad
TTITLE7=Gal Yuh Eva Clean
TTITLE8=Lyrical Bomber
TTITLE9=Gyal Gi Me Wine
EXTD=YEAR: 2013
EXTT0=
EXTT1=
EXTT2=
EXTT3=
EXTT4=
EXTT5=
EXTT6=
EXTT7=
EXTT8=
EXTT9=
PLAYORDER=
